# xmcd
#
# Track frame offsets: 
#        150
#        13312
#        29294
#        45375
#        56172
#        68435
#        83275
#        96129
#        114239
#        124707
#        135759
#        156216
#        172311
#        184051
#        198923
#        218207
#        237509
#        251234
#        268562
#        289872
#        303712
#        313222
#        331950
#        347030
#
# Disc length: 4790 seconds
#
# Revision: 2
# Processed by: cddbd v1.5.2PL0 Copyright (c) Steve Scherf et al.
# Submitted via: ExactAudioCopy v1.1
#
DISCID=5b12b418
DTITLE=Various Artist - Akella Presents - vol.97 - Rockin' Rollers Bl
DTITLE=ues  CD1
DYEAR=2016
DGENRE=Blues
TTITLE0=Larry Howard - Boogie Man
TTITLE1=The Black Sorrows - Can't Give Up On You
TTITLE2=Terry Davidson and the Gears - High Test Love
TTITLE3=Kid Andersen - Jennifer, Jennifer
TTITLE4=Mojo Blues Band - Drinkin' Wine Spo-Dee-O-Dee
TTITLE5=Ray Bonneville - That's Why
TTITLE6=Johnny One Eye - If I Had Money
TTITLE7=Bryan Lee - Barefootin'
TTITLE8=The Cadillac Jack Revue - Any Day Now
TTITLE9=Sauce Boss - Crazy Bout Ya Baby
TTITLE10=George Thorogood And The Destroyers - Long Gone
TTITLE11=Jimmy Morello - Working Stiff
TTITLE12=Kid Bangham and Amyl Justin - Rocket In My Pocket
TTITLE13=Liz Mandville - Guilty Of Rockin' All Night
TTITLE14=Rick Estrin and The Nightcats - I'm Takin' Out My In-Laws
TTITLE15=Al Basile - Give It Like You Get It
TTITLE16=The Kentucky Headhunters - Just Ask Fo' Lucy
TTITLE17=Pepe Ahlqvist and Tumbleweed - Rock This House
TTITLE18=Big Al and the Heavyweights - A Man Out of Love
TTITLE19=Monti Amundson - When It Comes To Love
TTITLE20=Wentus Blues Band - New Orleans Woman
TTITLE21=Phillip Walker - Mean Mean Woman
TTITLE22=Joel Johnson Band - Evil As The Howlin' Wolf
TTITLE23=Russell Morris - Walk My Blues
EXTD=
EXTT0=
EXTT1=
EXTT2=
EXTT3=
EXTT4=
EXTT5=
EXTT6=
EXTT7=
EXTT8=
EXTT9=
EXTT10=
EXTT11=
EXTT12=
EXTT13=
EXTT14=
EXTT15=
EXTT16=
EXTT17=
EXTT18=
EXTT19=
EXTT20=
EXTT21=
EXTT22=
EXTT23=
PLAYORDER=
